<svg width="36" height="39" viewBox="0 0 36 39" fill="none" xmlns="http://www.w3.org/2000/svg">
<path d="M33.2624 5.03689L32.4309 5.59246L32.4309 5.59246L33.2624 5.03689ZM33.2624 26.7964L32.4309 26.2408H32.4309L33.2624 26.7964ZM30.9632 29.0956L30.4077 28.2641L30.9632 29.0956ZM22.1668 30.4971L22.1625 29.4972C21.6119 29.4996 21.1668 29.9466 21.1668 30.4971H22.1668ZM22.1668 30.5L23.0613 30.9472C23.1307 30.8083 23.1668 30.6552 23.1668 30.5H22.1668ZM18.8946 37.0445L18.0002 36.5972L18.8946 37.0445ZM13.8335 30.5H12.8335C12.8335 30.6552 12.8696 30.8083 12.9391 30.9472L13.8335 30.5ZM13.8335 30.4971H14.8335C14.8335 29.9466 14.3884 29.4996 13.8379 29.4972L13.8335 30.4971ZM5.03708 29.0956L5.59265 28.2641L5.59265 28.2641L5.03708 29.0956ZM2.73792 26.7964L1.90645 27.352L2.73792 26.7964ZM2.73792 5.03689L3.56939 5.59246H3.56939L2.73792 5.03689ZM5.03708 2.73773L5.59265 3.5692V3.5692L5.03708 2.73773ZM30.9632 2.73773L31.5188 1.90626V1.90626L30.9632 2.73773ZM35.6668 15.9166C35.6668 13.0115 35.668 10.7574 35.4861 8.96929C35.3025 7.16451 34.9242 5.72395 34.0939 4.48132L32.4309 5.59246C33.0051 6.4517 33.3289 7.52506 33.4964 9.1717C33.6656 10.8351 33.6668 12.9699 33.6668 15.9166H35.6668ZM34.0939 27.352C34.9242 26.1093 35.3025 24.6688 35.4861 22.864C35.668 21.0759 35.6668 18.8218 35.6668 15.9166H33.6668C33.6668 18.8634 33.6656 20.9982 33.4964 22.6616C33.3289 24.3082 33.0051 25.3816 32.4309 26.2408L34.0939 27.352ZM31.5188 29.927C32.5379 29.2461 33.4129 28.3711 34.0939 27.352L32.4309 26.2408C31.8959 27.0416 31.2084 27.7291 30.4077 28.2641L31.5188 29.927ZM22.1712 31.4971C24.414 31.4873 26.2167 31.4446 27.6991 31.2397C29.1976 31.0325 30.4334 30.6523 31.5188 29.927L30.4077 28.2641C29.6569 28.7657 28.7422 29.0765 27.4253 29.2585C26.0923 29.4428 24.4148 29.4873 22.1625 29.4972L22.1712 31.4971ZM23.1668 30.5V30.4971H21.1668V30.5H23.1668ZM19.789 37.4917L23.0613 30.9472L21.2724 30.0528L18.0002 36.5972L19.789 37.4917ZM16.2113 37.4917C16.9484 38.9658 19.052 38.9658 19.789 37.4917L18.0002 36.5972H18.0002L16.2113 37.4917ZM12.9391 30.9472L16.2113 37.4917L18.0002 36.5972L14.7279 30.0528L12.9391 30.9472ZM12.8335 30.4971V30.5H14.8335V30.4971H12.8335ZM4.48151 29.927C5.5669 30.6523 6.80276 31.0325 8.30121 31.2397C9.78358 31.4446 11.5863 31.4873 13.8291 31.4971L13.8379 29.4972C11.5855 29.4873 9.90806 29.4428 8.57507 29.2585C7.25814 29.0765 6.34341 28.7657 5.59265 28.2641L4.48151 29.927ZM1.90645 27.352C2.58739 28.3711 3.4624 29.2461 4.48151 29.927L5.59265 28.2641C4.79192 27.7291 4.10441 27.0416 3.56939 26.2408L1.90645 27.352ZM0.333496 15.9166C0.333496 18.8218 0.332287 21.0759 0.514183 22.864C0.697779 24.6688 1.07615 26.1093 1.90645 27.352L3.56939 26.2408C2.99526 25.3816 2.67142 24.3082 2.50391 22.6616C2.3347 20.9982 2.3335 18.8634 2.3335 15.9166H0.333496ZM1.90645 4.48132C1.07615 5.72395 0.697779 7.16451 0.514183 8.96929C0.332287 10.7574 0.333496 13.0115 0.333496 15.9166H2.3335C2.3335 12.9699 2.3347 10.8351 2.50391 9.1717C2.67142 7.52506 2.99526 6.4517 3.56939 5.59246L1.90645 4.48132ZM4.48151 1.90626C3.4624 2.58721 2.58739 3.46222 1.90645 4.48132L3.56939 5.59246C4.10441 4.79174 4.79192 4.10423 5.59265 3.5692L4.48151 1.90626ZM15.9168 0.333313C13.0117 0.333313 10.7575 0.332104 8.96947 0.514C7.16469 0.697596 5.72414 1.07597 4.48151 1.90626L5.59265 3.5692C6.45188 2.99508 7.52524 2.67124 9.17188 2.50373C10.8352 2.33452 12.9701 2.33331 15.9168 2.33331V0.333313ZM20.0835 0.333313H15.9168V2.33331H20.0835V0.333313ZM31.5188 1.90626C30.2762 1.07597 28.8356 0.697596 27.0308 0.514C25.2428 0.332104 22.9886 0.333313 20.0835 0.333313V2.33331C23.0303 2.33331 25.1651 2.33452 26.8284 2.50373C28.4751 2.67124 29.5484 2.99508 30.4077 3.5692L31.5188 1.90626ZM34.0939 4.48132C33.4129 3.46222 32.5379 2.58721 31.5188 1.90626L30.4077 3.5692C31.2084 4.10423 31.8959 4.79174 32.4309 5.59246L34.0939 4.48132Z" fill="#33363F"/>
</svg>
